# xmcd
#
# Track frame offsets:
#	150
#	1785
#	11080
#	24311
#	31314
#	44091
#	62188
#	73251
#	81018
#	94376
#	99143
#	102658
#	104032
#	123091
#	137527
#	149049
#	163218
#	171129
#	180358
#	184239
#	186823
#	195817
#	205153
#	217647
#	231310
#	236899
#	246334
#	255925
#	267605
#	276276
#	283974
#	301721
#
# Disc length: 4259
#
# Revision: 1
# Processed by: cddbd v1.5.1PL0 Copyright (c) Steve Scherf et al.
# Submitted via: EasyCDDAExtractor 4.6.9.1
# Normalized: r0:TDELIM( - )
#
DISCID=d110a120
DTITLE=DJ Moto - Chocolate Boy Wonder - Bizarre Ride
DYEAR=2002
DGENRE=R&B
TTITLE0=DJ Moto - Introduction
TTITLE1=Usher - U Turn
TTITLE2=Naughty By Nature feat 3LW - Feels Good
TTITLE3=Brandy - What About Us
TTITLE4=N-Sync feat Nelly - Girlfriend (Remix)
TTITLE5=Fat Joe feat Ashanti - Whats Love
TTITLE6=Method Man and Redman feat Toni Braxton - HowHigh Pt2
TTITLE7=Faith Evans - You Get No Love
TTITLE8=Ja Rule feat Ashanti - Always On Time
TTITLE9=Busta Rhymes - As I Come Back
TTITLE10=Ludacris - One Minute Man
TTITLE11=Ludacris - Southern Hospitaality
TTITLE12=Busta Rhymes feat P Diddy - Pass the Covousier
TTITLE13=Cypress Hill - Low Rider
TTITLE14=Outlawz feat 2 Pac - Worldwide
TTITLE15=112 feat Bienie Sigel - Dance With Me (Remix)
TTITLE16=P Diddy - Diddy
TTITLE17=Eric Sermon feat Marvin Gaye - Music
TTITLE18=Petey Pablo - Raise Up
TTITLE19=Petey Pablo - I
TTITLE20=Tweet feat Missy Elliott - Oops
TTITLE21=Busta Rhymes - Break Ya Neck
TTITLE22=DMX - Ruff Ryders Anthem (Live)
TTITLE23=J Lo feat Ja Rule - Aint It Funny (Remix)
TTITLE24=Ashanti - Foolish
TTITLE25=Notorious BIG - One More Chance (Remix)
TTITLE26=Jonell feat Method Man - Round and Round
TTITLE27=Mary J Blige feat Common - Dance For Me
TTITLE28=City High feat Eve - Caramel (Remix)
TTITLE29=Dr Dre feat Knocturnal - Bad Intentions
TTITLE30=Timbaland and Magoo feat Tweet - All Ya'll
TTITLE31=Ashanti feat Ja Rule - Always On Time Pt 2
EXTD=
EXTT0=
EXTT1=
EXTT2=
EXTT3=
EXTT4=
EXTT5=
EXTT6=
EXTT7=
EXTT8=
EXTT9=
EXTT10=
EXTT11=
EXTT12=
EXTT13=
EXTT14=
EXTT15=
EXTT16=
EXTT17=
EXTT18=
EXTT19=
EXTT20=
EXTT21=
EXTT22=
EXTT23=
EXTT24=
EXTT25=
EXTT26=
EXTT27=
EXTT28=
EXTT29=
EXTT30=
EXTT31=
PLAYORDER=
